# xmcd
#
# Track frame offsets: 
#        150
#        31828
#        74034
#        95049
#        132414
#        156573
#        190439
#        223917
#
# Disc length: 3311 seconds
#
# Revision: 0
# Processed by: cddbd v1.5.2PL0 Copyright (c) Steve Scherf et al.
# Submitted via: ExactAudioCopy v0.99pb5
#
DISCID=830ced08
DTITLE=Mahmoud Ahmed - The Best Of Mahmoud Ahmed
DYEAR=2008
DGENRE=Ethnic
TTITLE0=Derra/Yeselalëwa
TTITLE1=Tizita Garedew
TTITLE2=Gichamuë
TTITLE3=Yeshegga Lij Neger
TTITLE4=Ney Dennun Tishesi
TTITLE5=Ere Mela Mela
TTITLE6=Tiz Tiz - Mekeran Sichilew - Eneman Neberu
TTITLE7=Alawekshitignim
EXTD=
EXTT0=
EXTT1=
EXTT2=
EXTT3=
EXTT4=
EXTT5=
EXTT6=
EXTT7=
PLAYORDER=
